<svg xmlns="http://www.w3.org/2000/svg" xmlns:svg="http://www.w3.org/2000/svg" id="svg8" width="84.075" height="34.549" version="1.1" viewBox="0 0 22.245 9.141"><defs id="defs2"><clipPath id="clipPath941" clipPathUnits="userSpaceOnUse"><path style="fill:#b6b688;fill-opacity:1;stroke:none;stroke-width:.264583px;stroke-linecap:butt;stroke-linejoin:miter;stroke-opacity:1" id="path943" d="m 34.747475,20.999999 -10.989908,-4 -16.4848641,6 4.1212161,1.5 L -0.96972903,29 v 1.999999 l 15.11112503,-5.5 4.121216,1.5 z"/></clipPath></defs><metadata id="metadata5"/><g id="layer1" transform="translate(-20.877589,-22.999999)"><g id="g869"><path style="fill:#634f05;fill-opacity:1;stroke:none;stroke-width:.25;stroke-linecap:butt;stroke-linejoin:miter;stroke-miterlimit:4;stroke-dasharray:none;stroke-dashoffset:0;stroke-opacity:1" id="path853-3" d="m 31.999999,31.999999 10.989909,-4 -10.989909,-4 -10.989909,4 z"/><g id="g1039"><path style="fill:#376f20;fill-opacity:1;stroke:none;stroke-width:.264583px;stroke-linecap:butt;stroke-linejoin:miter;stroke-opacity:1" id="path1026" d="m 21.010089,27.999999 v -1 l 2.404043,0.875 v 0.999998 l -2.404043,-0.874998"/><path style="fill:#69ac4e;fill-opacity:1;stroke:none;stroke-width:.264583px;stroke-linecap:butt;stroke-linejoin:miter;stroke-opacity:1" id="path1028" d="M 23.414132,28.874997 34.40404,24.874999 v -1 l -10.989908,4 v 0.999998"/><path style="fill:#a5e28d;fill-opacity:1;stroke:none;stroke-width:.264583px;stroke-linecap:butt;stroke-linejoin:miter;stroke-opacity:1" id="path1030" d="m 21.010089,26.999999 10.98991,-4 2.404041,0.875 -10.989908,4 z"/></g><g id="g1047" transform="translate(2.7474777,1.0000001)"><path style="fill:#376f20;fill-opacity:1;stroke:none;stroke-width:.264583px;stroke-linecap:butt;stroke-linejoin:miter;stroke-opacity:1" id="path1041" d="m 21.010089,27.999999 v -1 l 2.404043,0.875 v 0.999998 l -2.404043,-0.874998"/><path style="fill:#69ac4e;fill-opacity:1;stroke:none;stroke-width:.264583px;stroke-linecap:butt;stroke-linejoin:miter;stroke-opacity:1" id="path1043" d="M 23.414132,28.874997 34.40404,24.874999 v -1 l -10.989908,4 v 0.999998"/><path style="fill:#a5e28d;fill-opacity:1;stroke:none;stroke-width:.264583px;stroke-linecap:butt;stroke-linejoin:miter;stroke-opacity:1" id="path1045" d="m 21.010089,26.999999 10.98991,-4 2.404041,0.875 -10.989908,4 z"/></g><g id="g1055" transform="translate(5.494955,2.0000001)"><path style="fill:#376f20;fill-opacity:1;stroke:none;stroke-width:.264583px;stroke-linecap:butt;stroke-linejoin:miter;stroke-opacity:1" id="path1049" d="m 21.010089,27.999999 v -1 l 2.404043,0.875 v 0.999998 l -2.404043,-0.874998"/><path style="fill:#69ac4e;fill-opacity:1;stroke:none;stroke-width:.264583px;stroke-linecap:butt;stroke-linejoin:miter;stroke-opacity:1" id="path1051" d="M 23.414132,28.874997 34.40404,24.874999 v -1 l -10.989908,4 v 0.999998"/><path style="fill:#a5e28d;fill-opacity:1;stroke:none;stroke-width:.264583px;stroke-linecap:butt;stroke-linejoin:miter;stroke-opacity:1" id="path1053" d="m 21.010089,26.999999 10.98991,-4 2.404041,0.875 -10.989908,4 z"/></g><g id="g1063" transform="translate(8.2424323,3)"><path style="fill:#376f20;fill-opacity:1;stroke:none;stroke-width:.264583px;stroke-linecap:butt;stroke-linejoin:miter;stroke-opacity:1" id="path1057" d="m 21.010089,27.999999 v -1 l 2.404043,0.875 v 0.999998 l -2.404043,-0.874998"/><path style="fill:#69ac4e;fill-opacity:1;stroke:none;stroke-width:.264583px;stroke-linecap:butt;stroke-linejoin:miter;stroke-opacity:1" id="path1059" d="M 23.414132,28.874997 34.40404,24.874999 v -1 l -10.989908,4 v 0.999998"/><path style="fill:#a5e28d;fill-opacity:1;stroke:none;stroke-width:.264583px;stroke-linecap:butt;stroke-linejoin:miter;stroke-opacity:1" id="path1061" d="m 21.010089,26.999999 10.98991,-4 2.404041,0.875 -10.989908,4 z"/></g><path style="fill:none;stroke:#000;stroke-width:.265;stroke-linecap:round;stroke-linejoin:miter;stroke-miterlimit:4;stroke-dasharray:none;stroke-opacity:1" id="path1034" d="m 21.010089,27.999999 10.98991,4 10.989908,-4"/></g></g></svg>