<svg xmlns="http://www.w3.org/2000/svg" xmlns:svg="http://www.w3.org/2000/svg" id="svg8" width="64mm" height="48mm" version="1.1" viewBox="0 0 64 48"><defs id="defs2"><clipPath id="clipPath1042" clipPathUnits="userSpaceOnUse"><path style="fill:#d9a3ac;fill-opacity:1;stroke:none;stroke-width:.264583px;stroke-linecap:butt;stroke-linejoin:miter;stroke-opacity:1" id="path1044" d="m 38.525257,17.624999 1.030306,-0.375 v -1.5 l -1.030306,0.375 z"/></clipPath><clipPath id="clipPath1049" clipPathUnits="userSpaceOnUse"><path style="fill:#b6b688;fill-opacity:1;stroke:none;stroke-width:.264583px;stroke-linecap:butt;stroke-linejoin:miter;stroke-opacity:1" id="path1051" d="m 34.747475,20.999999 10.989911,-4 L 37.494953,14 l -10.98991,3.999999 -2.747476,-1 -16.4848641,6 4.1212161,1.5 L -0.96972903,29 v 1.999999 l 15.11112503,-5.5 4.121216,1.5 z"/></clipPath></defs><metadata id="metadata5"/><g id="layer1"><g id="g957"><g id="g1087"><rect style="fill:#83935e;fill-opacity:1;stroke:none;stroke-width:.216506;stroke-linecap:square;stroke-miterlimit:4;stroke-dasharray:none;stroke-dashoffset:0;stroke-opacity:1;paint-order:markers stroke fill" id="rect927" width="64" height="48" x="0" y="0"/><rect style="fill:#d0cc98;fill-opacity:1;stroke:none;stroke-width:.25;stroke-linecap:square;stroke-miterlimit:4;stroke-dasharray:none;stroke-dashoffset:0;stroke-opacity:1;paint-order:markers stroke fill" id="rect919" width="64" height="64" x="0" y="0" clip-path="url(#clipPath1049)"/><g id="g917"><path style="fill:#eb5252;fill-opacity:1;stroke:none;stroke-width:.25;stroke-linecap:butt;stroke-linejoin:miter;stroke-miterlimit:4;stroke-dasharray:none;stroke-opacity:1" id="path884" d="m 21.010089,23.999999 v -4 l 5.494956,-2 v 4 z"/><path style="fill:#a83434;fill-opacity:1;stroke:none;stroke-width:.264583px;stroke-linecap:butt;stroke-linejoin:miter;stroke-opacity:1" id="path886" d="m 21.010089,23.999999 -5.494954,-2 v -4 l 5.494954,2"/><path style="fill:#676767;fill-opacity:1;stroke:none;stroke-width:.264583px;stroke-linecap:butt;stroke-linejoin:miter;stroke-opacity:1" id="path888" d="m 16.888873,22.499999 v -2 l 1.373739,0.5 v 2"/><path style="fill:#888050;fill-opacity:1;stroke:none;stroke-width:.264583px;stroke-linecap:butt;stroke-linejoin:miter;stroke-opacity:1" id="path890" d="m 21.010089,19.999999 -2.747477,-4 -2.747477,2"/><path style="fill:#d8d1a7;fill-opacity:1;stroke:none;stroke-width:.264583px;stroke-linecap:butt;stroke-linejoin:miter;stroke-opacity:1" id="path892" d="m 26.505045,17.999999 -2.747478,-4 -5.494955,2 2.747477,4 z"/><path style="fill:none;stroke:#000;stroke-width:.264583px;stroke-linecap:butt;stroke-linejoin:miter;stroke-opacity:1" id="path900" d="m 21.010089,23.999999 5.494956,-2 v -4 l -2.747478,-4 -5.494955,2 -2.747477,2 v 4 z"/></g><g id="g1191"><path style="fill:#a83434;fill-opacity:1;stroke:none;stroke-width:.264583px;stroke-linecap:butt;stroke-linejoin:miter;stroke-opacity:1" id="path866" d="m 37.494953,17.999999 -2.747478,-1 V 8.9999996 l 2.747478,0.9999999"/><path style="fill:#eb5252;fill-opacity:1;stroke:none;stroke-width:.25;stroke-linecap:round;stroke-linejoin:round;stroke-miterlimit:4;stroke-dasharray:none;stroke-opacity:1" id="path864" d="M 37.494953,17.999999 V 9.9999995 l 1.373738,-2.4999998 1.37374,1.4999999 v 7.9999994 l -2.747478,1"/><g id="g1040" style="stroke-width:.2;stroke-miterlimit:4;stroke-dasharray:none;stroke:#dbd9b7;stroke-opacity:1" clip-path="url(#clipPath1042)"><path style="fill:none;stroke:#dbd9b7;stroke-width:.2;stroke-linecap:butt;stroke-linejoin:miter;stroke-opacity:1;stroke-miterlimit:4;stroke-dasharray:none" id="path1029" d="m 38.525256,16.124999 1.030306,1.125"/><path style="fill:none;stroke:#dbd9b7;stroke-width:.2;stroke-linecap:butt;stroke-linejoin:miter;stroke-opacity:1;stroke-miterlimit:4;stroke-dasharray:none" id="path1031" d="m 39.555562,15.749999 -1.030306,1.875"/><path style="fill:none;stroke:#dbd9b7;stroke-width:.2;stroke-linecap:butt;stroke-linejoin:miter;stroke-opacity:1;stroke-miterlimit:4;stroke-dasharray:none" id="path1035" d="m 38.525256,16.124999 1.030306,-0.375 v 1.5 l -1.030306,0.375 z"/></g><path style="fill:none;stroke:#000;stroke-width:.264583px;stroke-linecap:butt;stroke-linejoin:miter;stroke-opacity:1" id="path1146" d="m 37.494953,17.999999 2.747478,-1 V 8.9999996 l -1.37374,-1.4999999 -2.747476,-1.0000001 -1.37374,2.5 v 7.9999994 z"/><g id="g874" style="stroke:#b2ab80;stroke-width:.5;stroke-linecap:round;stroke-linejoin:round;stroke-miterlimit:4;stroke-dasharray:none;stroke-opacity:1"><path style="fill:#b2ab80;fill-opacity:1;stroke:#b2ab80;stroke-width:.5;stroke-linecap:round;stroke-linejoin:round;stroke-miterlimit:4;stroke-dasharray:none;stroke-opacity:1" id="path868" d="m 34.747475,8.9999996 1.37374,-2.5 2.747476,1.0000001 -1.373738,2.4999998 z"/><path style="fill:none;stroke:#b2ab80;stroke-width:.5;stroke-linecap:round;stroke-linejoin:round;stroke-miterlimit:4;stroke-dasharray:none;stroke-opacity:1" id="path870" d="M 40.242431,8.9999996 38.868691,7.4999997"/></g><g id="g1023" transform="translate(2.0071013,1.3555249)"><path style="fill:#efecbc;fill-opacity:1;stroke:none;stroke-width:.264583px;stroke-linecap:butt;stroke-linejoin:miter;stroke-opacity:1" id="path1017" d="M 39.179775,9.3007248 38.954551,9.6562496 36.94745,8.2382247 37.323236,7.9999998 Z"/><path style="fill:#fffdd0;fill-opacity:1;stroke:none;stroke-width:.264583px;stroke-linecap:butt;stroke-linejoin:miter;stroke-opacity:1" id="path1019" d="m 37.151519,7.9374996 0.171717,0.0625 -0.204071,0.363225 -0.171714,-0.0625 z"/><path style="fill:#928f5e;fill-opacity:1;stroke:none;stroke-width:.264583px;stroke-linecap:butt;stroke-linejoin:miter;stroke-opacity:1" id="path1021" d="m 38.954551,9.6562496 -0.171717,-0.0625 -1.835383,-1.2930248 0.171714,0.0625 z"/></g><path style="fill:none;stroke:#d2ca9c;stroke-width:.5;stroke-linecap:round;stroke-linejoin:round;stroke-opacity:1;stroke-miterlimit:4;stroke-dasharray:none" id="path1193" d="m 37.494953,9.9999995 1.373738,-2.4999998 1.37374,1.4999999"/><g id="g914" transform="translate(1.7171737,-2.4374993)"><path style="fill:#d6d197;fill-opacity:1;stroke:none;stroke-width:.264583px;stroke-linecap:butt;stroke-linejoin:miter;stroke-opacity:1" id="path908" d="m 38.525256,9.3749989 0.171718,0.0625 -1.373738,2.5000001 -0.171717,-0.0625 z"/><path style="fill:#efecbc;fill-opacity:1;stroke:none;stroke-width:.264583px;stroke-linecap:butt;stroke-linejoin:miter;stroke-opacity:1" id="path910" d="m 37.66667,12.187499 -0.343434,-0.25 1.373738,-2.5 0.343437,0.2499998 z"/><path style="fill:#938c5e;fill-opacity:1;stroke:none;stroke-width:.264583px;stroke-linecap:butt;stroke-linejoin:miter;stroke-opacity:1" id="path912" d="m 37.66667,12.187499 -0.171717,-0.0625 -0.343434,-0.25 0.171717,0.0625 0.343434,0.25"/></g><g id="g906" transform="translate(0.34343566,0.06250072)"><path style="fill:#d6d197;fill-opacity:1;stroke:none;stroke-width:.264583px;stroke-linecap:butt;stroke-linejoin:miter;stroke-opacity:1" id="path896" d="m 38.525256,9.3749989 0.171718,0.0625 -1.373738,2.5000001 -0.171717,-0.0625 z"/><path style="fill:#efecbc;fill-opacity:1;stroke:none;stroke-width:.264583px;stroke-linecap:butt;stroke-linejoin:miter;stroke-opacity:1" id="path898" d="m 37.66667,12.187499 -0.343434,-0.25 1.373738,-2.5 0.343437,0.2499998 z"/><path style="fill:#938c5e;fill-opacity:1;stroke:none;stroke-width:.264583px;stroke-linecap:butt;stroke-linejoin:miter;stroke-opacity:1" id="path901" d="m 37.66667,12.187499 -0.171717,-0.0625 -0.343434,-0.25 0.171717,0.0625 0.343434,0.25"/></g><g id="g987"><path style="fill:#efecbc;fill-opacity:1;stroke:none;stroke-width:.264583px;stroke-linecap:butt;stroke-linejoin:miter;stroke-opacity:1" id="path916" d="M 39.330337,9.4180245 39.126268,9.7812497 37.119167,8.3632248 37.323236,7.9999998 Z"/><path style="fill:#fffdd0;stroke:none;stroke-width:.264583px;stroke-linecap:butt;stroke-linejoin:miter;stroke-opacity:1;fill-opacity:1" id="path980" d="m 37.151519,7.9374996 0.171717,0.0625 -0.204071,0.363225 -0.171714,-0.0625 z"/><path style="fill:#928f5e;stroke:none;stroke-width:.264583px;stroke-linecap:butt;stroke-linejoin:miter;stroke-opacity:1;fill-opacity:1" id="path982" d="m 38.954551,9.6562496 -0.171717,-0.0625 -1.835383,-1.2930248 0.171714,0.0625 z"/></g></g></g></g><path style="fill:#634f05;fill-opacity:1;stroke:#000;stroke-width:.25;stroke-linecap:butt;stroke-linejoin:round;stroke-miterlimit:4;stroke-dasharray:none;stroke-dashoffset:0;stroke-opacity:1" id="path853" d="m 21.01009,35.999999 10.989909,-4 -10.989909,-4 -10.989909,4 z"/><path style="fill:#634f05;fill-opacity:1;stroke:#000;stroke-width:.25;stroke-linecap:butt;stroke-linejoin:round;stroke-miterlimit:4;stroke-dasharray:none;stroke-dashoffset:0;stroke-opacity:1" id="path853-3" d="m 31.999999,31.999999 10.989909,-4 -10.989909,-4 -10.989909,4 z"/><path style="fill:#634f05;fill-opacity:1;stroke:#000;stroke-width:.25;stroke-linecap:butt;stroke-linejoin:round;stroke-miterlimit:4;stroke-dasharray:none;stroke-dashoffset:0;stroke-opacity:1" id="path853-6" d="m 42.989908,35.999999 10.989909,-4 -10.989909,-4 -10.989909,4 z"/></g></svg>