<svg xmlns="http://www.w3.org/2000/svg" xmlns:svg="http://www.w3.org/2000/svg" id="svg1084" width="64" height="64" version="1.1" viewBox="0 0 16.933 16.933"><metadata id="metadata1081"/><g id="layer1"><g id="g887"><path style="fill:#634f05;stroke:#000;stroke-width:.265;stroke-linecap:round;stroke-linejoin:round;stroke-opacity:1;stroke-miterlimit:4;stroke-dasharray:none;fill-opacity:1" id="path8994" d="M 8.4666666,12.647083 16.608358,9.6837499 8.4666666,6.7204166 0.32497522,9.6837499 Z"/><path style="fill:#e3e356;stroke:none;stroke-width:.264583px;stroke-linecap:butt;stroke-linejoin:miter;stroke-opacity:1;fill-opacity:1" id="path835" d="M 8.4666666,12.276667 15.590647,9.6837499 V 7.0908332 L 8.4666666,9.6837499 Z"/><path style="fill:#979839;stroke:none;stroke-width:.264583px;stroke-linecap:butt;stroke-linejoin:miter;stroke-opacity:1;fill-opacity:1" id="path837" d="M 8.4666666,12.276667 1.3426866,9.6837499 V 7.0908332 l 7.12398,2.5929167 z"/><g id="g866" style="stroke:none;fill:#bfbf50;fill-opacity:1"><path style="fill:#bfbf50;stroke:none;stroke-width:.264583px;stroke-linecap:butt;stroke-linejoin:miter;stroke-opacity:1;fill-opacity:1" id="path852" d="M 1.8515423,9.8689582 V 8.0168749 l 1.0177115,0.3704167 v 1.8520834 z"/><path style="fill:#bfbf50;stroke:none;stroke-width:.264583px;stroke-linecap:butt;stroke-linejoin:miter;stroke-opacity:1;fill-opacity:1" id="path854" d="M 5.922388,11.350625 V 9.4985415 l 1.0177113,0.3704167 v 1.8520838 z"/></g><g id="g862"><path style="fill:#cfcf40;stroke:none;stroke-width:.264583px;stroke-linecap:butt;stroke-linejoin:miter;stroke-opacity:1;fill-opacity:1" id="path856" d="M 12.537512,10.795 V 8.9429166 l -1.017711,0.3704166 v 1.8520838 z"/><path style="fill:#cfcf40;stroke:none;stroke-width:.264583px;stroke-linecap:butt;stroke-linejoin:miter;stroke-opacity:1;fill-opacity:1" id="path858" d="M 14.572935,10.054167 V 8.2020832 l -1.017711,0.3704167 v 1.8520831 z"/></g><g id="g850"><path style="fill:#eceea6;fill-opacity:1;stroke:none;stroke-width:.264583px;stroke-linecap:butt;stroke-linejoin:miter;stroke-opacity:1" id="path841" d="M 8.4666667,10.054167 16.608358,7.0908334 8.4666667,4.1275 0.32497521,7.0908334 Z"/><path style="fill:#b5b92c;stroke:none;stroke-width:.264583px;stroke-linecap:butt;stroke-linejoin:miter;stroke-opacity:1;fill-opacity:1" id="path843" d="M 0.32497522,7.0908332 V 7.8316666 L 8.4666666,10.795 v -0.740833 z"/><path style="fill:#f7f8a9;stroke:none;stroke-width:.264583px;stroke-linecap:butt;stroke-linejoin:miter;stroke-opacity:1;fill-opacity:1" id="path845" d="M 8.4666666,10.795 16.608358,7.8316666 V 7.0908332 L 8.4666666,10.054167 Z"/></g><path style="fill:#d7d887;stroke:none;stroke-width:.264583px;stroke-linecap:butt;stroke-linejoin:miter;stroke-opacity:1;fill-opacity:1" id="path868" d="m 10.502089,7.4612499 2.035423,-0.7408333 2.035423,0.7408333 -2.035423,0.7408333 z"/><path style="fill:#f3f3c2;stroke:none;stroke-width:.264583px;stroke-linecap:butt;stroke-linejoin:miter;stroke-opacity:1;fill-opacity:1" id="path870" d="M 4.3958208,6.7204166 6.4312437,5.9795833 8.4666666,6.7204166 6.4312437,7.4612499 Z"/></g></g></svg>