<svg xmlns="http://www.w3.org/2000/svg" xmlns:svg="http://www.w3.org/2000/svg" id="svg1084" width="64" height="64" version="1.1" viewBox="0 0 16.933 16.933"><metadata id="metadata1081"/><g id="layer1"><path style="fill:#634f05;stroke:none;stroke-width:.265;stroke-linecap:round;stroke-linejoin:round;stroke-opacity:1;stroke-miterlimit:4;stroke-dasharray:none;fill-opacity:1" id="path8994" d="M 8.4666666,12.647083 16.608358,9.6837499 8.4666666,6.7204166 0.32497522,9.6837499 Z"/><path style="fill:#f7c933;stroke:none;stroke-width:.264583px;stroke-linecap:butt;stroke-linejoin:miter;stroke-opacity:1;fill-opacity:1" id="path835" d="M 8.4666666,12.647083 V 8.2020832 L 16.608358,5.2387499 v 4.445 L 8.4666666,12.647083"/><path style="fill:#e89c3b;stroke:none;stroke-width:.264583px;stroke-linecap:butt;stroke-linejoin:miter;stroke-opacity:1;fill-opacity:1" id="path837" d="m 0.32497522,9.6837499 v -4.445 L 8.4666666,8.2020832 v 4.4449998 z"/><path style="fill:#ffe293;stroke:none;stroke-width:.264583px;stroke-linecap:butt;stroke-linejoin:miter;stroke-opacity:1;fill-opacity:1" id="path839" d="M 8.4666666,8.2020832 16.608358,5.2387499 8.4666666,2.2754167 0.32497522,5.2387499 Z"/><path style="fill:#cf771c;stroke:none;stroke-width:.264583px;stroke-linecap:butt;stroke-linejoin:miter;stroke-opacity:1;fill-opacity:1" id="path843" d="M 1.8515423,5.7943749 V 10.239375 L 0.83383092,9.8689582 V 5.4239583 Z"/><path style="fill:#cf771c;stroke:none;stroke-width:.264583px;stroke-linecap:butt;stroke-linejoin:miter;stroke-opacity:1;fill-opacity:1" id="path845" d="M 4.9046767,11.350625 V 6.9056249 L 5.922388,7.2760416 v 4.4450004 z"/><g id="g859" style="fill:#f4cb40;fill-opacity:1;stroke:none;stroke-opacity:1"><path style="fill:#f4cb40;stroke:none;stroke-width:.264583px;stroke-linecap:butt;stroke-linejoin:miter;stroke-opacity:1;fill-opacity:1" id="path841" d="M 0.83383092,5.4239583 8.9755222,2.460625 9.9932338,2.8310416 1.8515423,5.7943749 Z"/><path style="fill:#f4cb40;stroke:none;stroke-width:.264583px;stroke-linecap:butt;stroke-linejoin:miter;stroke-opacity:1;fill-opacity:1" id="path847" d="M 4.9046767,6.9056249 13.046368,3.9422916 14.064079,4.3127083 5.922388,7.2760416 Z"/></g><g id="g855" style="fill:#e79f38;fill-opacity:1;stroke:none"><path style="fill:#e79f38;stroke:none;stroke-width:.264583px;stroke-linecap:butt;stroke-linejoin:miter;stroke-opacity:1;fill-opacity:1" id="path849" d="M 12.028657,11.350625 V 6.9056249 l -1.017712,0.3704167 v 4.4450004 z"/><path style="fill:#e79f38;stroke:none;stroke-width:.264583px;stroke-linecap:butt;stroke-linejoin:miter;stroke-opacity:1;fill-opacity:1" id="path851" d="M 16.099502,9.8689582 V 5.4239583 l -1.017711,0.3704166 v 4.4450001 z"/></g><path style="fill:none;stroke:#000;stroke-width:.265;stroke-linecap:round;stroke-linejoin:round;stroke-opacity:1;stroke-miterlimit:4;stroke-dasharray:none" id="path861" d="M 0.32497522,9.6837499 8.4666666,12.647083 16.608358,9.6837499"/></g></svg>